<svg width="501" height="634" viewBox="0 0 501 634" fill="none" xmlns="http://www.w3.org/2000/svg">
<path d="M316.734 250.067C316.734 263.253 312.824 276.142 305.499 287.105C298.173 298.069 287.761 306.613 275.58 311.659C263.398 316.705 249.993 318.025 237.061 315.453C224.129 312.881 212.25 306.531 202.927 297.208C193.603 287.884 187.254 276.005 184.682 263.073C182.109 250.141 183.429 236.737 188.475 224.555C193.521 212.373 202.066 201.961 213.029 194.636C223.993 187.311 236.882 183.401 250.067 183.401C267.732 183.453 284.658 190.494 297.149 202.985C309.64 215.476 316.681 232.402 316.734 250.067ZM500.067 250.067C500.067 452.734 344.401 579.734 277.734 624.734C269.659 630.472 259.973 633.506 250.067 633.401C240.065 633.46 230.287 630.434 222.067 624.734C155.401 579.734 0.0672958 453.067 0.0672958 250.067C-0.708352 217.025 5.22798 184.168 17.5171 153.486C29.8062 122.804 48.1926 94.9346 71.5636 71.5636C94.9346 48.1926 122.804 29.8062 153.486 17.5171C184.168 5.22799 217.025 -0.708352 250.067 0.0672957C283.102 -0.679854 315.946 5.27599 346.615 17.5752C377.284 29.8744 405.142 48.2617 428.508 71.6269C451.873 94.9921 470.26 122.85 482.559 153.52C494.859 184.189 500.814 217.032 500.067 250.067ZM383.401 250.067C383.401 223.696 375.581 197.918 360.93 175.991C346.279 154.065 325.455 136.975 301.092 126.883C276.728 116.792 249.919 114.151 224.055 119.296C198.191 124.441 174.433 137.139 155.786 155.786C137.139 174.433 124.441 198.191 119.296 224.055C114.151 249.919 116.792 276.728 126.883 301.092C136.975 325.455 154.065 346.279 175.991 360.93C197.918 375.581 223.696 383.401 250.067 383.401C285.429 383.401 319.343 369.353 344.348 344.348C369.353 319.343 383.401 285.429 383.401 250.067Z" fill="#A8CD9F"/>
</svg>
